<svg width="1443" height="860" viewBox="0 0 1443 860" fill="none" xmlns="http://www.w3.org/2000/svg">
<rect x="1" y="1" width="1440" height="858" fill="#1C140F"/>
<path d="M1 692.583C29.934 668.44 79.6557 633.159 138.925 617.158C206.5 598.915 323.663 585.878 372.172 660.115C396.132 696.784 370.128 738.415 399 770.415C427.691 802.213 475.941 781.777 512.5 798.915C544.5 813.915 553 840.415 568 858.915" stroke="#E4E4E4"/>
<path d="M394 1C422.419 32.5504 496.606 94.1487 566.008 88.1391C652.759 80.6271 712 56 786.377 79.1247C832.677 93.5199 828.257 138.219 870.137 170.771C912.017 203.323 1094.49 124.197 1094.49 124.197C1094.49 124.197 1223.13 66.6047 1235.59 124.197C1248.06 181.789 1196.7 250.398 1220.14 264.421C1238.88 275.638 1375.86 224.357 1442 197.313" stroke="#E17A0E" stroke-opacity="0.24"/>
</svg>
