<svg width="110" height="35" viewBox="0 0 110 35" fill="none" xmlns="http://www.w3.org/2000/svg">
<path fill-rule="evenodd" clip-rule="evenodd" d="M51.5293 12.3517C51.5359 12.4707 51.5603 12.5886 51.5979 12.7007C52.3678 17.9363 51.7627 27.1237 48.6129 30.6354C47.843 31.4953 46.9962 31.9109 46.0255 31.9109C44.0145 31.9109 43.8127 31.4255 42.9266 28.5028L42.8904 28.384L42.8904 28.3838C42.682 27.6993 42.4515 26.942 42.1578 26.1195C40.4792 21.3973 37.846 21.0763 32.079 20.3752L31.2742 20.2768C29.8251 20.1393 28.5575 20.0695 26.9828 20.0436C25.4624 20.0679 24.1931 20.1388 22.6981 20.281L21.9354 20.3752C16.1673 21.0763 13.5368 21.3968 11.8582 26.1195C11.5551 26.9675 11.3194 27.7447 11.1074 28.4437L11.091 28.4975C10.205 31.4255 10.0026 31.9109 7.99211 31.9109C7.02144 31.9109 6.17467 31.4953 5.40367 30.6354C2.19135 27.0518 1.62555 17.5842 2.47619 12.3141C2.53869 11.7875 2.66922 10.6913 3.12717 8.94199C3.97284 5.80515 5.06242 3.79255 5.50931 3.04588C5.84946 2.79417 6.07678 2.40392 6.10222 1.97454C6.11604 1.77253 6.3417 0 10.2249 0H12.7403C14.4732 0 15.737 0.36064 16.3918 1.04173C16.7541 1.42035 17.3072 1.57952 17.826 1.45314C19.8934 0.957126 22.4398 0.487552 26.985 0.412991C31.579 0.487552 34.1232 0.957126 36.19 1.45314C36.705 1.58005 37.2597 1.42035 37.6242 1.04279C38.2801 0.361169 39.5439 0 41.2779 0H43.7894C47.6699 0 47.8972 1.77518 47.9105 1.9391C47.9116 2.23206 48.0106 2.52184 48.1898 2.75874C48.2058 2.7799 49.8131 4.93793 50.8866 8.933C50.9104 9.02701 50.9394 9.11749 50.9567 9.17141L50.958 9.17519C51.1659 9.88484 51.4331 11.0144 51.5293 12.3517ZM6.59502 11.9509C6.59502 15.6371 9.72271 18.6269 13.5777 18.6269C17.4344 18.6269 20.5588 15.6371 20.5588 11.9509C20.5588 8.26513 17.4344 5.27477 13.5777 5.27477C9.72216 5.27477 6.59502 8.26513 6.59502 11.9509ZM42.9537 7.6771C42.9537 6.34876 41.826 5.27424 40.4405 5.27424C39.0539 5.27424 37.9251 6.34876 37.9251 7.6771C37.9251 9.00492 39.0539 10.0794 40.4405 10.0794C41.826 10.0794 42.9537 9.00492 42.9537 7.6771ZM33.455 11.9509C33.455 13.2797 34.5783 14.3532 35.971 14.3532C37.3565 14.3532 38.4815 13.2797 38.4815 11.9509C38.4815 10.6236 37.3565 9.54958 35.971 9.54958C34.5783 9.54958 33.455 10.6236 33.455 11.9509ZM37.9251 16.2225C37.9251 17.5493 39.0539 18.6269 40.4405 18.6269C41.826 18.6269 42.9537 17.5493 42.9537 16.2225C42.9537 14.8968 41.826 13.8196 40.4405 13.8196C39.0539 13.8196 37.9251 14.8968 37.9251 16.2225ZM42.394 11.9509C42.394 13.2797 43.5206 14.3532 44.9056 14.3532C46.2982 14.3532 47.4226 13.2797 47.4226 11.9509C47.4226 10.6236 46.2982 9.54958 44.9056 9.54958C43.5206 9.54958 42.394 10.6236 42.394 11.9509ZM1.09142 33.0485H108.051C108.654 33.0485 109.142 33.2999 109.142 33.6101C109.142 33.9202 108.654 34.1716 108.051 34.1716H1.09142C0.488647 34.1716 0 33.9202 0 33.6101C0 33.2999 0.488647 33.0485 1.09142 33.0485ZM16.4914 10.457H15.1385V9.16409C15.1385 8.33916 14.4389 7.67181 13.5777 7.67181C12.7177 7.67181 12.0169 8.33916 12.0169 9.16409V10.457H10.6624C9.79959 10.457 9.09994 11.127 9.09994 11.9509C9.09994 12.7768 9.79959 13.4431 10.6624 13.4431H12.0169V14.7366C12.0169 15.5615 12.7177 16.2299 13.5777 16.2299C14.4394 16.2299 15.1385 15.5615 15.1385 14.7366V13.4431H16.4914C17.3531 13.4431 18.0538 12.7763 18.0538 11.9509C18.0538 11.127 17.3531 10.457 16.4914 10.457ZM61.6246 24.06C61.7179 24.1533 61.8312 24.2 61.9646 24.2H66.9446C68.2779 24.2 69.3712 24.0066 70.2246 23.62C71.0912 23.22 71.7379 22.62 72.1646 21.82C72.5912 21.0066 72.8179 19.98 72.8446 18.74C72.8712 18.1666 72.8846 17.6533 72.8846 17.2C72.8846 16.7466 72.8712 16.2266 72.8446 15.64C72.8312 14.4666 72.5979 13.4733 72.1446 12.66C71.7046 11.8466 71.0446 11.2333 70.1646 10.82C69.2979 10.4066 68.1912 10.2 66.8446 10.2H61.9646C61.8312 10.2 61.7179 10.2466 61.6246 10.34C61.5312 10.4333 61.4846 10.5533 61.4846 10.7V23.72C61.4846 23.8533 61.5312 23.9666 61.6246 24.06ZM66.8446 21.9H64.2646V12.5H66.7446C67.8779 12.5 68.7046 12.76 69.2246 13.28C69.7446 13.8 70.0179 14.6066 70.0446 15.7C70.0579 16.0866 70.0646 16.4333 70.0646 16.74C70.0779 17.0333 70.0779 17.3333 70.0646 17.64C70.0646 17.9333 70.0579 18.28 70.0446 18.68C70.0312 19.4533 69.9112 20.08 69.6846 20.56C69.4712 21.0266 69.1312 21.3666 68.6646 21.58C68.1979 21.7933 67.5912 21.9 66.8446 21.9ZM75.6871 24.06C75.7804 24.1533 75.8937 24.2 76.0271 24.2H77.8471C77.9937 24.2 78.1071 24.1533 78.1871 24.06C78.2804 23.9666 78.3271 23.8533 78.3271 23.72V18.92H81.1071L83.6871 23.66C83.7537 23.78 83.8471 23.9 83.9671 24.02C84.0871 24.14 84.2604 24.2 84.4871 24.2H86.3071C86.4137 24.2 86.5071 24.16 86.5871 24.08C86.6804 24 86.7271 23.9 86.7271 23.78C86.7271 23.7133 86.7071 23.64 86.6671 23.56L83.7471 18.46C84.5604 18.1666 85.2071 17.6933 85.6871 17.04C86.1804 16.3866 86.4271 15.5666 86.4271 14.58C86.4271 13.1533 85.9604 12.0666 85.0271 11.32C84.0937 10.5733 82.8204 10.2 81.2071 10.2H76.0271C75.8937 10.2 75.7804 10.2466 75.6871 10.34C75.5937 10.4333 75.5471 10.5533 75.5471 10.7V23.72C75.5471 23.8533 75.5937 23.9666 75.6871 24.06ZM81.1471 16.66H78.3271V12.42H81.1471C81.9737 12.42 82.5804 12.6133 82.9671 13C83.3671 13.3733 83.5671 13.8933 83.5671 14.56C83.5671 15.2266 83.3671 15.7466 82.9671 16.12C82.5671 16.48 81.9604 16.66 81.1471 16.66ZM91.265 23.76C92.1317 24.1866 93.1784 24.4 94.405 24.4C95.6317 24.4 96.6917 24.18 97.585 23.74C98.4917 23.3 99.185 22.6733 99.665 21.86C100.158 21.0466 100.405 20.08 100.405 18.96V16.86C100.405 16.7133 100.358 16.5933 100.265 16.5C100.185 16.4066 100.072 16.36 99.925 16.36H95.145C95.0117 16.36 94.8984 16.4066 94.805 16.5C94.7117 16.5933 94.665 16.7133 94.665 16.86V17.92C94.665 18.0666 94.7117 18.1866 94.805 18.28C94.8984 18.3733 95.0117 18.42 95.145 18.42H97.585V19.04C97.585 19.7466 97.445 20.3266 97.165 20.78C96.8984 21.2333 96.525 21.5666 96.045 21.78C95.5784 21.9933 95.045 22.1 94.445 22.1C93.5384 22.1 92.805 21.8533 92.245 21.36C91.6984 20.8666 91.405 20.0533 91.365 18.92C91.325 17.7333 91.325 16.56 91.365 15.4C91.405 14.2933 91.6917 13.5 92.225 13.02C92.7717 12.54 93.4984 12.3 94.405 12.3C95.0184 12.3 95.5184 12.3933 95.905 12.58C96.2917 12.7666 96.5984 13 96.825 13.28C97.0517 13.5466 97.2184 13.82 97.325 14.1C97.3784 14.2066 97.4384 14.2866 97.505 14.34C97.5717 14.3933 97.6717 14.42 97.805 14.42H99.865C99.9984 14.42 100.105 14.38 100.185 14.3C100.265 14.22 100.298 14.12 100.285 14C100.272 13.6 100.138 13.1666 99.885 12.7C99.645 12.2333 99.2784 11.8 98.785 11.4C98.305 10.9866 97.6984 10.6533 96.965 10.4C96.2317 10.1333 95.3784 9.99997 94.405 9.99997C93.205 9.99997 92.165 10.2133 91.285 10.64C90.4184 11.0666 89.745 11.6733 89.265 12.46C88.7984 13.2466 88.545 14.1933 88.505 15.3C88.4917 15.8866 88.485 16.5133 88.485 17.18C88.485 17.8333 88.4917 18.4466 88.505 19.02C88.545 20.14 88.7984 21.1066 89.265 21.92C89.745 22.72 90.4117 23.3333 91.265 23.76Z" fill="#E47500"/>
</svg>
