<svg width="69" height="72" viewBox="0 0 69 72" fill="none" xmlns="http://www.w3.org/2000/svg">
<path d="M31.2983 43.6944H60.6188L69.0001 53.8975L24.0103 53.8975L31.2983 43.6944Z" fill="white"/>
<path d="M30.8393 43.4479L14.3767 65.954L0.00010399 65.9539L23.2845 33.7733L30.8393 43.4479Z" fill="white"/>
<path d="M31.2276 42.9951L14.7906 20.9861L19.44 9.00016L44.6444 42.9951L31.2276 42.9951Z" fill="white"/>
<path d="M23.6819 9.88862C23.5887 9.76597 23.5516 9.63598 23.5704 9.49867C23.5892 9.36136 23.6599 9.24614 23.7825 9.15302L34.6543 0.899126C34.777 0.806005 34.907 0.768842 35.0443 0.787638C35.1816 0.806433 35.2968 0.877158 35.3899 0.999814L38.5772 5.198C39.4238 6.31305 39.9522 7.37957 40.1626 8.39755C40.3841 9.40707 40.3029 10.3652 39.919 11.2718C39.5548 12.1812 38.8849 13.0237 37.9094 13.7995C37.4273 14.1831 37.0022 14.5146 36.6342 14.794C36.2663 15.0733 35.8383 15.3894 35.3504 15.7423C34.288 16.4961 33.2728 16.9417 32.3048 17.079C31.3368 17.2163 30.4061 17.0439 29.5129 16.5619C28.6308 16.0715 27.7707 15.2743 26.9326 14.1704L23.6819 9.88862ZM27.5411 10.4918L29.0268 12.4487C29.45 13.0063 29.8808 13.3999 30.3189 13.6298C30.7571 13.8596 31.218 13.9227 31.7018 13.8191C32.2053 13.7181 32.7511 13.4531 33.3394 13.024C33.6712 12.7897 33.9654 12.5752 34.2218 12.3805C34.4868 12.1969 34.7432 12.0022 34.9912 11.7963C35.2477 11.6016 35.5278 11.3802 35.8316 11.132C36.6509 10.4748 37.0991 9.79174 37.1762 9.08288C37.2728 8.3767 36.9995 7.59989 36.3561 6.75245L34.9339 4.87916L27.5411 10.4918ZM32.6848 21.747C32.5916 21.6243 32.5545 21.4943 32.5733 21.357C32.5921 21.2197 32.6628 21.1045 32.7854 21.0114L43.6572 12.7575C43.7799 12.6644 43.9099 12.6272 44.0472 12.646C44.1845 12.6648 44.2997 12.7355 44.3928 12.8582L47.7579 17.2905C48.8161 18.6843 49.3266 20.0282 49.2893 21.322C49.2633 22.6074 48.6481 23.7072 47.4439 24.6215C46.6299 25.2395 45.8015 25.5607 44.9589 25.5853C44.1162 25.6098 43.3113 25.3947 42.5442 24.94L40.1532 30.4729C40.1117 30.5572 40.0631 30.6205 40.0074 30.6628C39.9182 30.7305 39.8091 30.7605 39.6803 30.7529C39.5626 30.7368 39.4656 30.6786 39.3895 30.5782L37.9799 28.7216C37.8276 28.5209 37.7635 28.3323 37.7876 28.1558C37.8229 27.9707 37.8683 27.8221 37.9236 27.7098L40.2046 22.7613L38.6681 20.7375L34.8045 23.6708C34.6818 23.7639 34.5518 23.8011 34.4145 23.7823C34.2772 23.7635 34.162 23.6927 34.0689 23.5701L32.6848 21.747ZM40.7923 19.1248L42.4177 21.2657C42.8833 21.879 43.3655 22.2247 43.8644 22.303C44.3717 22.3924 44.8763 22.2467 45.3781 21.8657C45.8798 21.4848 46.1656 21.0393 46.2354 20.5293C46.3053 20.0193 46.1031 19.452 45.6291 18.8276L44.0037 16.6867L40.7923 19.1248ZM44.3867 37.5078C43.591 36.4596 43.0823 35.4308 42.8608 34.4213C42.6589 33.4144 42.7358 32.4508 43.0917 31.5303C43.4671 30.6124 44.1216 29.7728 45.0551 29.0113C45.5261 28.6361 46.0348 28.2411 46.5812 27.8263C47.1276 27.4115 47.6503 27.0234 48.1494 26.6621C49.1114 25.9845 50.0738 25.5966 51.0364 25.4986C52.0075 25.4117 52.9495 25.6105 53.8624 26.0952C54.7948 26.5825 55.6505 27.3391 56.4293 28.365C57.0558 29.1901 57.5001 29.9953 57.7623 30.7806C58.0245 31.5659 58.1436 32.3016 58.1197 32.9878C58.1068 33.6654 57.9844 34.2682 57.7523 34.7959C57.5201 35.3237 57.2243 35.7329 56.8648 36.0234C56.7645 36.0996 56.6499 36.1338 56.521 36.1262C56.4033 36.1101 56.3022 36.0463 56.2175 35.9348L54.6429 33.8608C54.5583 33.7493 54.5128 33.6431 54.5066 33.5424C54.5089 33.4527 54.5377 33.3518 54.5931 33.2394C54.7345 33.009 54.8379 32.7284 54.9031 32.3976C54.988 32.0695 54.9929 31.7055 54.9177 31.3055C54.8426 30.9055 54.6272 30.4714 54.2717 30.0031C53.7384 29.3006 53.1311 28.8827 52.4499 28.7495C51.7772 28.6275 51.01 28.8672 50.1483 29.4686C49.1639 30.1632 48.1883 30.904 47.2213 31.6908C46.3769 32.3846 45.9218 33.0817 45.8559 33.7821C45.7985 34.4936 46.0364 35.2007 46.5698 35.9031C46.9168 36.3603 47.3039 36.708 47.7309 36.9463C48.1775 37.1873 48.6541 37.2825 49.1606 37.232C49.6671 37.1814 50.188 36.9529 50.7232 36.5466L51.1413 36.2291L49.7572 34.406C49.6726 34.2945 49.6396 34.1701 49.6584 34.0328C49.6884 33.887 49.7591 33.7718 49.8706 33.6871L50.9411 32.8745C51.0637 32.7813 51.1937 32.7442 51.331 32.763C51.4683 32.7818 51.5793 32.8469 51.664 32.9584L54.7751 37.0562C54.8682 37.1789 54.9053 37.3089 54.8865 37.4462C54.8678 37.5835 54.797 37.6987 54.6744 37.7918L52.8513 39.176C51.8923 39.904 50.9119 40.3144 49.91 40.407C48.9166 40.5109 47.9396 40.3122 46.9791 39.811C46.0381 39.3125 45.174 38.5448 44.3867 37.5078Z" fill="white"/>
</svg>
